<?xml version="1.0" encoding="UTF-8"?><svg id="Capa_2" xmlns="http://www.w3.org/2000/svg" viewBox="0 0 1701.07 566.93"><defs><style>.cls-1{fill:none;}.cls-2{fill:#095c66;}.cls-3{fill:#1f1d21;}.cls-4{fill:#346094;}.cls-5{fill:#222221;}.cls-6{fill:#ed7700;}</style></defs><g id="Capa_1-2"><rect class="cls-1" width="1701.07" height="566.93"/><path class="cls-4" d="M525.65,323.32c30.08-14.9,38.15-46.05,22.25-74.83-15.65-28.3-45.89-37.5-76.33-33.12-32.65,4.71-58.52,25.95-68.63,57.39-10.21,31.74,2.33,68.77,24.27,92.4,22.44,24.16,58.95,32.7,90.72,29.04,34.2-3.94,61.55-25.07,78.08-54.69,24.82-44.46,24.2-103.49-9.45-142.84-54.38-63.62-169.37-47.4-218.84,13.19-32.64,39.99-37.07,94.96-20.83,142.87,17.51,51.67,61.62,89.31,114.49,101.15,42.53,9.52,87.93,1.59,125.12-20.89,46.5-28.12,74.38-79.65,84.09-131.96,9.92-53.4-3.02-107.77-38.25-149.3-34.69-40.91-90.55-58.52-142.83-52.5-23.49,2.7-23.76,39.85,0,37.11,61.44-7.07,119.24,23.11,140,83.14,20.58,59.53-2.15,133.45-50.08,173.39-36.41,30.34-91.98,36.1-134.7,16.79-47.96-21.68-72.82-71.19-69.67-122.66,4.92-80.4,106.31-115.29,167.67-78.92,35.19,20.85,41.13,67.39,24.65,105.75-13.66,31.78-40.43,46.38-74.37,43.6-30.54-2.5-52.9-26.14-56.02-56.03-3.52-33.7,25.17-51.19,55.4-49.98,10.49.42,18.05,7.25,23.45,15.83,7.35,11.67,2.27,18.51-8.93,24.05-21.45,10.62-2.63,42.63,18.73,32.05h0Z"/><path class="cls-6" d="M701.49,96.02c0,15.27-12.38,27.65-27.64,27.65s-27.65-12.38-27.65-27.65,12.38-27.64,27.65-27.64,27.64,12.38,27.64,27.64Z"/><path class="cls-2" d="M733.58,156.11c0,8.87-7.18,16.05-16.04,16.05s-16.04-7.18-16.04-16.05,7.18-16.04,16.04-16.04,16.04,7.18,16.04,16.04Z"/><path class="cls-4" d="M789.58,110.76h36.96c5.38,0,8.4,3.02,8.4,8.4v218.42c0,5.37-3.02,8.4-8.4,8.4h-36.96c-5.38,0-8.41-3.02-8.41-8.4V119.16c0-5.37,3.02-8.4,8.41-8.4Z"/><path class="cls-4" d="M1096.02,217.28c5.38,0,8.41,3.02,8.41,8.41v111.9c0,5.37-3.02,8.4-8.41,8.4h-33.6c-5.38,0-8.41-3.02-8.41-8.4v-19.06c-15.85,21.1-40.28,32.17-71.57,32.17-65.53,0-115.59-53.09-115.59-122.31s51.41-122.32,122.31-122.32c53.43,0,98.79,32.93,112.57,75.94,2.02,5.72-1.01,9.41-7.06,9.41h-39.65c-4.7,0-7.39-2.02-9.74-6.05-9.75-15.12-31.25-26.88-56.12-26.88-41.67,0-68.55,27.89-68.55,69.9,0,45.36,28.9,73.25,68.55,73.25,25.26,0,50.5-10.54,60.05-37.3h-50.64c-5.38,0-8.4-3.02-8.4-8.41v-30.24c0-5.38,3.02-8.41,8.4-8.41h97.45,0Z"/><path class="cls-4" d="M1279.15,119.16v34.95c0,5.38-3.02,8.4-8.4,8.4h-45.36v175.07c0,5.37-3.02,8.4-8.41,8.4h-36.96c-5.38,0-8.4-3.02-8.4-8.4v-175.07h-45.36c-5.38,0-8.4-3.02-8.4-8.4v-34.95c0-5.37,3.02-8.4,8.4-8.4h144.49c5.37,0,8.4,3.02,8.4,8.4Z"/><path class="cls-4" d="M1475.72,191.4c0,44.69-35.95,80.65-82.32,80.65h-35.29v65.53c0,5.37-3.02,8.4-8.4,8.4h-36.96c-5.37,0-8.4-3.02-8.4-8.4V119.16c0-5.37,3.02-8.4,8.4-8.4h80.65c46.37,0,82.32,35.95,82.32,80.64ZM1421.96,191.4c0-17.13-12.1-30.24-28.56-30.24h-35.29v60.48h35.29c16.46,0,28.56-13.11,28.56-30.25Z"/><path class="cls-3" d="M1571.41,155.84c0-6.34-4.04-10.29-11.57-10.29h-10.75v20.57h10.75c7.51,0,11.57-4.31,11.57-10.29M1573.71,179.62l16.64,34.33h-20.11l-14.68-31.58h-6.48v31.58h-18.26v-84.78h32.48c16.18,0,26.59,11.48,26.59,26.55,0,11.48-6.12,20.21-16.18,23.92M1603.95,111.19h-89.7v156.73h89.7V111.19Z"/><path class="cls-5" d="M809.48,417.56h-11.91c-.72,0-1.22.5-1.22,1.22v.57c0,.72.5,1.22,1.22,1.22h10.01v1.57c-.5,5.72-5.69,8.27-10.62,8.27-7.4,0-12.78-5.29-12.78-12.58s5.37-12.58,12.5-12.58c4.75,0,8.94,2.63,10.69,6.72.23.5.67.78,1.22.78h.77c.41,0,.77-.17.98-.48s.25-.7.1-1.1c-2.12-5.36-7.64-8.97-13.75-8.97-8.91,0-15.62,6.72-15.62,15.62s6.83,15.62,15.9,15.62c4.37,0,8.21-1.62,10.61-4.35v2.7c0,.72.5,1.22,1.22,1.22h.68c.72,0,1.22-.5,1.22-1.22v-13.02c0-.72-.5-1.22-1.22-1.22Z"/><path class="cls-5" d="M828.25,410.42c-6.43,0-11.1,4.84-11.1,11.52s4.72,11.52,11.21,11.52c4.53,0,8.25-2.28,9.71-5.95.14-.35.11-.73-.09-1.02-.21-.32-.59-.49-1.02-.49h-.73c-.5,0-.93.25-1.22.78-1.02,2.28-3.56,3.7-6.63,3.7-4.28,0-7.42-2.76-8.05-6.94h17.43c.69,0,1.2-.48,1.23-1.2v-.3c0-5.62-3.76-11.6-10.73-11.6ZM820.3,420.54c.55-4.3,3.66-7.13,7.95-7.13,4.01,0,6.98,2.83,7.59,7.13h-15.54Z"/><path class="cls-5" d="M854.43,410.6c-2.44.1-4.52,1.05-5.98,2.69v-1.21c0-.71-.51-1.22-1.22-1.22h-.63c-.71,0-1.22.51-1.22,1.22v19.72c0,.71.51,1.22,1.22,1.22h.63c.71,0,1.22-.51,1.22-1.22v-11.01c0-5.17,3.32-7.12,6.13-7.22.54,0,1.1-.42,1.1-1.22v-.55c0-.35-.13-.67-.36-.89-.23-.22-.51-.31-.89-.32Z"/><path class="cls-5" d="M882.21,410.43h0c-2.59,0-4.83,1.19-6.24,3.28-1.18-2.08-3.31-3.28-5.98-3.28-2.05,0-3.9.78-5.27,2.18v-.52c0-.71-.51-1.22-1.22-1.22h-.63c-.7,0-1.22.51-1.22,1.22v19.72c0,.71.51,1.22,1.22,1.22h.63c.71,0,1.22-.51,1.22-1.22v-12c0-4.42,2.57-6.4,5.11-6.4s4.11,1.66,4.11,4.68v13.71c0,.71.51,1.22,1.22,1.22h.63c.71,0,1.22-.51,1.22-1.22v-12c0-4.42,2.57-6.4,5.11-6.4s4.11,1.66,4.11,4.68v13.71c0,.71.51,1.22,1.22,1.22h.63c.7,0,1.22-.51,1.22-1.22v-13.71c0-5.65-3.66-7.67-7.08-7.67Z"/><path class="cls-5" d="M904.67,410.42c-4.63,0-7.92,2.76-8.19,6.88-.02.35.09.67.32.9.22.24.54.37.9.37h.63c.63,0,1.11-.42,1.23-1.15.21-2.96,2.78-4.01,5.11-4.01,2.48,0,5.14,1.36,5.14,5.18v2.4c-1.49-1.17-3.58-1.82-6-1.82-4.8,0-8.16,2.94-8.16,7.15s3.36,7.15,8.16,7.15c2.54,0,4.57-.6,6-1.75v.09c0,.71.51,1.22,1.22,1.22h.63c.71,0,1.22-.51,1.22-1.22v-13.22c0-4.88-3.3-8.16-8.2-8.16ZM909.81,426.31c0,3.78-4.04,4.19-5.78,4.19-3.28,0-5.32-1.6-5.32-4.19s2.04-4.19,5.32-4.19c1.36,0,5.78.3,5.78,4.19Z"/><path class="cls-5" d="M930.03,410.42c-2.59,0-4.8.94-6.37,2.64v-.99c0-.71-.51-1.22-1.22-1.22h-.63c-.71,0-1.22.51-1.22,1.22v19.72c0,.71.51,1.22,1.22,1.22h.63c.71,0,1.22-.51,1.22-1.22v-11.18c0-5.33,3.34-7.22,6.2-7.22s4.75,1.9,4.75,5.09v13.3c0,.71.51,1.22,1.22,1.22h.63c.71,0,1.22-.51,1.22-1.22v-13.3c0-4.83-3.08-8.08-7.65-8.08Z"/><path class="cls-5" d="M952.99,420.48c-3.35-.81-5.41-1.42-5.41-3.73,0-2.47,2.48-3.34,4.79-3.34,2.12,0,4.47.88,4.67,3.4.11.65.59,1.07,1.22,1.07h.63c.36,0,.68-.13.9-.37.22-.24.34-.55.32-.92-.25-3.7-3.36-6.18-7.73-6.18-4.63,0-7.86,2.6-7.86,6.33,0,4.69,4.19,5.71,7.56,6.53,3.41.83,5.5,1.46,5.5,3.86s-2.69,3.34-5.2,3.34c-2.38,0-4.99-.88-5.19-3.41-.11-.65-.59-1.07-1.22-1.07h-.63c-.35,0-.67.13-.9.37-.22.24-.34.56-.32.92.25,3.69,3.57,6.18,8.25,6.18,4.95,0,8.27-2.54,8.27-6.32,0-4.8-4.24-5.83-7.65-6.65Z"/><path class="cls-5" d="M998.78,402.64h-17.53c-.7,0-1.22.51-1.22,1.22v.58c0,.71.51,1.22,1.22,1.22h7.2v26.14c0,.71.51,1.22,1.22,1.22h.69c.7,0,1.22-.51,1.22-1.22v-26.14h7.2c.7,0,1.22-.51,1.22-1.22v-.58c0-.71-.51-1.22-1.22-1.22Z"/><path class="cls-5" d="M1012.16,410.6c-2.44.1-4.52,1.05-5.98,2.69v-1.21c0-.71-.51-1.22-1.22-1.22h-.63c-.71,0-1.22.51-1.22,1.22v19.72c0,.71.51,1.22,1.22,1.22h.63c.71,0,1.22-.51,1.22-1.22v-11.01c0-5.17,3.32-7.12,6.13-7.22.54,0,1.1-.42,1.1-1.22v-.55c0-.35-.13-.67-.36-.89-.23-.22-.51-.31-.89-.32Z"/><path class="cls-5" d="M1020.59,410.86h.63c.67,0,1.22.55,1.22,1.22v19.72c0,.67-.55,1.22-1.22,1.22h-.63c-.67,0-1.22-.55-1.22-1.22v-19.72c0-.67.55-1.22,1.22-1.22Z"/><path class="cls-5" d="M1020.59,402.64h.63c.67,0,1.22.55,1.22,1.22v3.29c0,.67-.55,1.22-1.22,1.22h-.63c-.67,0-1.22-.55-1.22-1.22v-3.29c0-.67.55-1.22,1.22-1.22Z"/><path class="cls-5" d="M1038.4,410.42c-4.63,0-7.92,2.76-8.19,6.88-.02.35.09.67.32.9.22.24.54.37.9.37h.63c.63,0,1.11-.42,1.23-1.15.21-2.96,2.78-4.01,5.11-4.01,2.48,0,5.14,1.36,5.14,5.18v2.4c-1.49-1.17-3.58-1.82-6-1.82-4.8,0-8.16,2.94-8.16,7.15s3.36,7.15,8.16,7.15c2.54,0,4.57-.6,6-1.75v.09c0,.71.51,1.22,1.22,1.22h.63c.7,0,1.22-.51,1.22-1.22v-13.22c0-4.88-3.3-8.16-8.2-8.16ZM1043.54,426.31c0,3.78-4.04,4.19-5.78,4.19-3.28,0-5.31-1.6-5.31-4.19s2.04-4.19,5.31-4.19c1.36,0,5.78.3,5.78,4.19Z"/><path class="cls-5" d="M1061.91,420.48c-3.35-.81-5.41-1.42-5.41-3.73,0-2.47,2.48-3.34,4.79-3.34,2.12,0,4.47.88,4.67,3.4.11.65.59,1.07,1.22,1.07h.63c.36,0,.68-.13.9-.37.22-.24.34-.55.32-.92-.25-3.7-3.36-6.18-7.73-6.18-4.63,0-7.86,2.6-7.86,6.33,0,4.69,4.19,5.71,7.56,6.53,3.41.83,5.5,1.46,5.5,3.86s-2.69,3.34-5.2,3.34c-2.38,0-4.99-.88-5.19-3.41-.11-.65-.59-1.07-1.22-1.07h-.63c-.35,0-.67.13-.9.37-.22.24-.34.56-.32.92.25,3.69,3.57,6.18,8.25,6.18,4.95,0,8.27-2.54,8.27-6.32,0-4.8-4.24-5.83-7.65-6.65Z"/><path class="cls-5" d="M1092.51,410.86h.63c.67,0,1.22.55,1.22,1.22v19.72c0,.67-.55,1.22-1.22,1.22h-.63c-.67,0-1.22-.55-1.22-1.22v-19.72c0-.67.55-1.22,1.22-1.22Z"/><path class="cls-5" d="M1092.51,402.64h.63c.67,0,1.22.55,1.22,1.22v3.29c0,.67-.55,1.22-1.22,1.22h-.63c-.67,0-1.22-.55-1.22-1.22v-3.29c0-.67.55-1.22,1.22-1.22Z"/><path class="cls-5" d="M1128.04,402.64h-9.04c-.71,0-1.22.51-1.22,1.22v27.94c0,.71.51,1.22,1.22,1.22h.69c.7,0,1.22-.51,1.22-1.22v-10.83h7.14c5.05,0,9.16-4.11,9.16-9.16s-4.11-9.16-9.16-9.16ZM1134.08,411.81c0,3.39-2.71,6.15-6.04,6.15h-7.14v-12.3h7.14c3.33,0,6.04,2.76,6.04,6.15Z"/><path class="cls-5" d="M1159.28,410.86h-.63c-.71,0-1.22.51-1.22,1.22v11.17c0,5.33-3.34,7.22-6.2,7.22s-4.75-1.9-4.75-5.1v-13.29c0-.71-.51-1.22-1.22-1.22h-.63c-.71,0-1.22.51-1.22,1.22v13.29c0,4.83,3.08,8.08,7.65,8.08,2.59,0,4.8-.94,6.37-2.64v.99c0,.71.51,1.22,1.22,1.22h.63c.71,0,1.22-.51,1.22-1.22v-19.72c0-.71-.51-1.22-1.22-1.22Z"/><path class="cls-5" d="M1170.18,402.64h.63c.67,0,1.22.55,1.22,1.22v3.29c0,.67-.55,1.22-1.22,1.22h-.63c-.67,0-1.22-.55-1.22-1.22v-3.29c0-.67.55-1.22,1.22-1.22Z"/><path class="cls-5" d="M1170.81,410.86h-.63c-.72,0-1.22.5-1.22,1.22v23.14c0,1.31-.3,2.26-.88,2.82-.56.52-1.46.73-2.68.68-.43.06-.75.18-.91.33-.16.15-.35.44-.35.88v.55c0,.7.49,1.2,1.16,1.23.21.01.42.02.62.02,1.78,0,3.21-.5,4.27-1.5,1.2-1.13,1.83-2.85,1.83-4.99v-23.14c0-.72-.5-1.22-1.22-1.22Z"/><path class="cls-5" d="M1190.39,410.43c-6.48,0-11.56,5.06-11.56,11.51s5.08,11.52,11.56,11.52,11.56-5.06,11.56-11.52-5.08-11.51-11.56-11.51ZM1190.39,413.41c4.76,0,8.49,3.75,8.49,8.53s-3.73,8.53-8.49,8.53-8.49-3.75-8.49-8.53,3.73-8.53,8.49-8.53Z"/><path class="cls-5" d="M1209.98,401.82h.63c.67,0,1.22.55,1.22,1.22v28.76c0,.67-.55,1.22-1.22,1.22h-.63c-.67,0-1.22-.55-1.22-1.22v-28.76c0-.67.55-1.22,1.22-1.22Z"/><path class="cls-5" d="M1248.42,420.49c3.69-1.24,6.25-4.69,6.25-8.69,0-5.05-4.11-9.16-9.16-9.16h-9.04c-.7,0-1.22.51-1.22,1.22v27.94c0,.71.51,1.22,1.22,1.22h.69c.7,0,1.22-.51,1.22-1.22v-10.83h6.47l10.18,11.55c.29.33.67.5,1.12.5h.88c.49,0,.88-.23,1.06-.62.18-.39.1-.85-.22-1.22l-9.44-10.68ZM1245.51,417.95h-7.14v-12.3h7.14c3.33,0,6.04,2.76,6.04,6.15s-2.71,6.15-6.04,6.15Z"/><path class="cls-5" d="M1271.88,410.42c-6.43,0-11.1,4.84-11.1,11.52s4.72,11.52,11.21,11.52c4.53,0,8.25-2.28,9.71-5.95.14-.35.11-.73-.09-1.02-.21-.32-.59-.49-1.02-.49h-.73c-.5,0-.93.25-1.22.78-1.02,2.28-3.56,3.7-6.63,3.7-4.28,0-7.42-2.76-8.05-6.94h17.43c.69,0,1.2-.48,1.23-1.2v-.3c0-5.62-3.76-11.6-10.73-11.6ZM1263.92,420.54c.55-4.3,3.66-7.13,7.95-7.13,4.01,0,6.98,2.83,7.59,7.13h-15.54Z"/><path class="cls-5" d="M1296.6,420.48c-3.35-.81-5.41-1.42-5.41-3.73,0-2.47,2.48-3.34,4.79-3.34,2.12,0,4.47.88,4.67,3.4.11.65.59,1.07,1.22,1.07h.63c.36,0,.68-.13.9-.37.22-.24.34-.55.32-.92-.25-3.7-3.36-6.18-7.73-6.18-4.63,0-7.86,2.6-7.86,6.33,0,4.69,4.19,5.71,7.56,6.53,3.41.83,5.5,1.46,5.5,3.86s-2.69,3.34-5.2,3.34c-2.38,0-4.99-.88-5.19-3.41-.11-.65-.59-1.07-1.22-1.07h-.63c-.35,0-.67.13-.9.37-.22.24-.34.56-.32.92.25,3.69,3.57,6.18,8.25,6.18,4.95,0,8.27-2.54,8.27-6.32,0-4.8-4.24-5.83-7.65-6.65Z"/><path class="cls-5" d="M1320.46,410.42c-6.43,0-11.1,4.84-11.1,11.52s4.72,11.52,11.21,11.52c4.53,0,8.25-2.28,9.71-5.95.14-.35.11-.73-.09-1.02-.21-.32-.59-.49-1.02-.49h-.73c-.5,0-.93.25-1.22.78-1.02,2.28-3.56,3.7-6.63,3.7-4.28,0-7.42-2.76-8.05-6.94h17.43c.69,0,1.2-.48,1.23-1.2v-.3c0-5.62-3.76-11.6-10.73-11.6ZM1312.51,420.54c.55-4.3,3.66-7.13,7.95-7.13,4.01,0,6.98,2.83,7.59,7.13h-15.54Z"/><path class="cls-5" d="M1345.26,410.42c-4.63,0-7.92,2.76-8.19,6.88-.02.35.09.67.32.9.22.24.54.37.9.37h.63c.63,0,1.11-.42,1.23-1.15.21-2.96,2.78-4.01,5.11-4.01,2.48,0,5.14,1.36,5.14,5.18v2.4c-1.49-1.17-3.58-1.82-6-1.82-4.8,0-8.16,2.94-8.16,7.15s3.36,7.15,8.16,7.15c2.54,0,4.57-.6,6-1.75v.09c0,.71.51,1.22,1.22,1.22h.63c.71,0,1.22-.51,1.22-1.22v-13.22c0-4.88-3.3-8.16-8.2-8.16ZM1350.39,426.31c0,3.78-4.04,4.19-5.78,4.19-3.28,0-5.32-1.6-5.32-4.19s2.04-4.19,5.32-4.19c1.36,0,5.78.3,5.78,4.19Z"/><path class="cls-5" d="M1370.23,410.6c-2.44.1-4.52,1.05-5.98,2.69v-1.21c0-.71-.51-1.22-1.22-1.22h-.63c-.71,0-1.22.51-1.22,1.22v19.72c0,.71.51,1.22,1.22,1.22h.63c.71,0,1.22-.51,1.22-1.22v-11.01c0-5.17,3.32-7.12,6.13-7.22.54,0,1.1-.42,1.1-1.22v-.55c0-.35-.13-.67-.36-.89-.23-.22-.53-.31-.89-.32Z"/><path class="cls-5" d="M1386.26,413.41c3.31,0,6.06,1.65,7.21,4.31.23.5.67.78,1.22.78h.66c.42,0,.78-.18.99-.49.21-.31.24-.71.09-1.07-1.5-3.96-5.5-6.51-10.18-6.51-6.59,0-11.56,4.95-11.56,11.52s4.97,11.52,11.56,11.52c4.69,0,8.69-2.55,10.17-6.51.15-.38.12-.77-.09-1.07-.21-.31-.57-.49-1-.49h-.66c-.55,0-.99.28-1.23.8-1.15,2.65-3.91,4.3-7.2,4.3-4.84,0-8.49-3.67-8.49-8.53s3.65-8.53,8.49-8.53Z"/><path class="cls-5" d="M1412.47,410.42c-2.59,0-4.8.94-6.37,2.64v-9.21c0-.71-.51-1.22-1.22-1.22h-.63c-.71,0-1.22.51-1.22,1.22v27.94c0,.71.51,1.22,1.22,1.22h.63c.71,0,1.22-.51,1.22-1.22v-11.18c0-5.33,3.34-7.22,6.2-7.22s4.75,1.9,4.75,5.09v13.3c0,.71.51,1.22,1.22,1.22h.63c.71,0,1.22-.51,1.22-1.22v-13.3c0-4.83-3.08-8.08-7.65-8.08Z"/><path class="cls-5" d="M1444.17,402.64h.69c.67,0,1.22.55,1.22,1.22v27.94c0,.67-.55,1.22-1.22,1.22h-.69c-.67,0-1.22-.55-1.22-1.22v-27.94c0-.67.55-1.22,1.22-1.22Z"/><path class="cls-5" d="M1464.22,410.42c-2.59,0-4.8.94-6.37,2.64v-.99c0-.71-.51-1.22-1.22-1.22h-.63c-.71,0-1.22.51-1.22,1.22v19.72c0,.71.51,1.22,1.22,1.22h.63c.71,0,1.22-.51,1.22-1.22v-11.18c0-5.33,3.34-7.22,6.2-7.22s4.75,1.9,4.75,5.09v13.3c0,.71.51,1.22,1.22,1.22h.63c.71,0,1.22-.51,1.22-1.22v-13.3c0-4.83-3.08-8.08-7.65-8.08Z"/><path class="cls-5" d="M1487.18,420.48c-3.35-.81-5.41-1.42-5.41-3.73,0-2.47,2.48-3.34,4.79-3.34,2.12,0,4.47.88,4.67,3.4.11.65.59,1.07,1.22,1.07h.63c.36,0,.68-.13.9-.37.22-.24.34-.55.32-.92-.25-3.7-3.36-6.18-7.73-6.18-4.63,0-7.86,2.6-7.86,6.33,0,4.69,4.19,5.71,7.56,6.53,3.41.83,5.5,1.46,5.5,3.86s-2.69,3.34-5.2,3.34c-2.38,0-4.99-.88-5.19-3.41-.11-.65-.59-1.07-1.22-1.07h-.63c-.35,0-.67.13-.9.37-.22.24-.34.56-.32.92.25,3.69,3.57,6.18,8.25,6.18,4.95,0,8.27-2.54,8.27-6.32,0-4.8-4.24-5.83-7.65-6.65Z"/><path class="cls-5" d="M1510.4,410.86h-3.49v-5.35c0-.71-.51-1.22-1.22-1.22h-.63c-.71,0-1.22.51-1.22,1.22v5.35h-3.51c-.71,0-1.22.51-1.22,1.22v.55c0,.71.51,1.22,1.22,1.22h3.51v17.95c0,.71.51,1.22,1.22,1.22h.63c.71,0,1.22-.51,1.22-1.22v-17.95h3.49c.71,0,1.22-.51,1.22-1.22v-.55c0-.71-.51-1.22-1.22-1.22Z"/><path class="cls-5" d="M1518.8,402.64h.63c.67,0,1.22.55,1.22,1.22v3.29c0,.67-.55,1.22-1.22,1.22h-.63c-.67,0-1.22-.55-1.22-1.22v-3.29c0-.67.55-1.22,1.22-1.22Z"/><path class="cls-5" d="M1518.81,410.86h.63c.67,0,1.22.55,1.22,1.22v19.72c0,.67-.55,1.22-1.22,1.22h-.63c-.67,0-1.22-.55-1.22-1.22v-19.72c0-.67.55-1.22,1.22-1.22Z"/><path class="cls-5" d="M1537.92,410.86h-3.49v-5.35c0-.71-.51-1.22-1.22-1.22h-.63c-.71,0-1.22.51-1.22,1.22v5.35h-3.51c-.71,0-1.22.51-1.22,1.22v.55c0,.71.51,1.22,1.22,1.22h3.51v17.95c0,.71.51,1.22,1.22,1.22h.63c.71,0,1.22-.51,1.22-1.22v-17.95h3.49c.71,0,1.22-.51,1.22-1.22v-.55c0-.71-.51-1.22-1.22-1.22Z"/><path class="cls-5" d="M1560.4,410.86h-.63c-.71,0-1.22.51-1.22,1.22v11.17c0,5.33-3.34,7.22-6.2,7.22s-4.75-1.9-4.75-5.1v-13.29c0-.71-.51-1.22-1.22-1.22h-.63c-.71,0-1.22.51-1.22,1.22v13.29c0,4.83,3.08,8.08,7.65,8.08,2.59,0,4.8-.94,6.37-2.64v.99c0,.71.51,1.22,1.22,1.22h.63c.71,0,1.22-.51,1.22-1.22v-19.72c0-.71-.51-1.22-1.22-1.22Z"/><path class="cls-5" d="M1578.87,410.86h-3.49v-5.35c0-.71-.51-1.22-1.22-1.22h-.63c-.71,0-1.22.51-1.22,1.22v5.35h-3.51c-.71,0-1.22.51-1.22,1.22v.55c0,.71.51,1.22,1.22,1.22h3.51v17.95c0,.71.51,1.22,1.22,1.22h.63c.71,0,1.22-.51,1.22-1.22v-17.95h3.49c.71,0,1.22-.51,1.22-1.22v-.55c0-.71-.51-1.22-1.22-1.22Z"/><path class="cls-5" d="M1594.83,410.42c-6.43,0-11.1,4.84-11.1,11.52s4.72,11.52,11.21,11.52c4.53,0,8.25-2.28,9.71-5.95.14-.35.11-.73-.09-1.02-.21-.32-.59-.49-1.02-.49h-.73c-.5,0-.93.25-1.22.78-1.02,2.28-3.56,3.7-6.63,3.7-4.28,0-7.42-2.76-8.05-6.94h17.43c.69,0,1.2-.48,1.23-1.2v-.3c0-5.62-3.76-11.6-10.73-11.6ZM1586.88,420.54c.55-4.3,3.66-7.13,7.95-7.13,4.01,0,6.98,2.83,7.59,7.13h-15.54Z"/><path class="cls-4" d="M309.99,322.38c-6.88-11.95-16.63-21.45-29.24-28.5-6.94-3.87-14.72-6.64-23.29-8.39,3.26-2.94,6.44-5.88,9.54-8.81,12.61-11.95,22.61-23.5,29.98-34.64,7.37-11.13,10.72-21.45,10.07-30.96-.33-9.5-3.53-17.69-9.58-24.57-6.07-6.88-13.93-12.29-23.59-16.22-9.67-3.93-20.23-5.9-31.7-5.9-17.37,0-34.73,2.7-52.09,8.11-17.37,5.4-34.57,14.17-51.6,26.29-6.56,4.59-10.4,10-11.55,16.22-1.15,6.23.08,11.96,3.69,17.2,3.6,5.57,9.01,9.01,16.22,10.32,7.2,1.31,13.59,0,19.16-3.93,16.05-11.13,30.55-19.16,43.49-24.08,12.94-4.91,23.17-7.37,30.71-7.37,5.24,0,9.41.82,12.53,2.46,3.11,1.64,4.67,4.26,4.67,7.86,0,2.95-3.61,8.03-10.81,15.23-7.21,7.21-16.38,15.32-27.52,24.32-11.14,9.01-23.09,18.02-35.87,27.03-12.78,9.01-24.74,17.12-35.87,24.32-6.56,4.59-10.16,9.91-10.81,15.97-.66,6.07.49,11.72,3.44,16.95,3.6,6.56,9,10.56,16.22,12.04,7.2,1.47,14.25-.24,21.13-5.16,11.46-7.53,21.62-12.53,30.47-14.99,8.84-2.46,17.69-3.69,26.53-3.69,7.86,0,14.41,1.56,19.66,4.67,5.24,3.11,9.25,7.45,12.04,13.02,2.78,5.57,4.18,11.96,4.18,19.17,0,12.45-3.2,23.92-9.58,34.4-6.39,10.49-14.67,19.58-24.82,27.28-10.16,7.7-21.22,13.6-33.17,17.69-11.96,4.1-23.67,6.14-35.14,6.14-6.23,0-11.88-.98-16.95-2.95-5.08-1.97-10.73-5.08-16.95-9.34-6.88-4.25-13.76-5.48-20.64-3.69-6.88,1.8-11.79,5.33-14.74,10.56-2.29,4.26-2.95,9.18-1.97,14.74.98,5.57,5.74,11.63,14.25,18.18,7.53,5.57,16.54,10.16,27.03,13.76,10.48,3.6,21.29,5.4,32.44,5.4,17.36,0,34.89-3.36,52.58-10.07,17.69-6.71,33.91-16.29,48.65-28.75,14.74-12.45,26.61-26.94,35.63-43.49,9.01-16.54,13.52-34.48,13.52-53.81,0-14.74-3.44-28.09-10.32-40.05Z"/></g></svg>